<svg viewBox="0 0 128 127" xmlns="http://www.w3.org/2000/svg">
  <g fill="#111" fill-rule="evenodd">
    <path d="M115.8859475 102.6181622c0-6.6954329-5.4196645-12.1150974-12.1150973-12.1150974-6.6933432 0-12.1140525 5.4196645-12.1140525 12.1150974 0 6.6943879 5.4196645 12.1140524 12.1130076 12.1140524 6.6964777 0 12.1161422-5.2598016 12.1161422-12.1140524m-35.8657034 6.2158442l-52.6032411.0010449C12.27496 108.8350513 0 96.5600911 0 81.417003 0 66.27496 12.27496 54 27.417003 54l45.7479454.001044-30.4439493 24.387968-.0010448-12.114052H27.576866c-8.4487 0-15.144133 6.853206-15.143088 15.142043 0 8.2898821 6.855296 15.1430881 15.143088 15.1430881h52.4433781c2.7103547-10.5206482 12.2728705-18.3309421 23.5907432-18.3309421C117.0008081 78.229149 128 89.0684785 128 102.6181622c0 13.5486388-10.839329 24.3879678-24.3890127 24.3879678-11.3178727 0-20.8803885-7.8113383-23.5907432-18.1721236"/>
    <path d="M12.1140525 24.3879678c0 6.6954329 5.4196645 12.1150974 12.1150973 12.1150974 6.6933432 0 12.1140525-5.4196645 12.1140525-12.1150974 0-6.6943879-5.4196645-12.1140524-12.1130076-12.1140524-6.6964777 0-12.1161422 5.2598016-12.1161422 12.1140524m35.8657034-6.2158442l52.6032411-.0010449C115.72504 18.1710787 128 30.4460389 128 45.589127c0 15.1420432-12.27496 27.4170034-27.417003 27.4170034l-45.7479454-.0010449 30.4439493-24.3879678.0010448 12.1140525h15.1430883c8.4487 0 15.144133-6.853206 15.143088-15.1420432 0-8.2898821-6.855296-15.1430881-15.143088-15.1430881H47.9797559c-2.7103547 10.5206482-12.2728705 18.3309416-23.5907432 18.3309416C10.9991919 48.7769805 0 37.9376515 0 24.3879678 0 10.839329 10.839329 0 24.3890127 0c11.3178727 0 20.8803885 7.8113383 23.5907432 18.1721236"/>
  </g>
</svg>
