<svg xmlns="http://www.w3.org/2000/svg" xmlns:xlink="http://www.w3.org/1999/xlink" version="1.1" x="0px" y="0px" viewBox="0 0 100 125" style="enable-background:new 0 0 100 100;" xml:space="preserve"><style type="text/css">
	.st0{fill-rule:evenodd;clip-rule:evenodd;}
</style><path class="st0" d="M61.5,40v33c0,9.5-7.7,17.2-17.2,17.2s-17.2-7.7-17.2-17.2V44.3l15.3,19.1h-7.6v9.5c0,5.3,4.3,9.5,9.5,9.5  s9.5-4.3,9.5-9.5V40c-6.6-1.7-11.5-7.7-11.5-14.8c0-8.4,6.8-15.3,15.3-15.3s15.3,6.8,15.3,15.3C72.9,32.3,68,38.3,61.5,40z   M57.6,17.5c-4.2,0-7.6,3.4-7.6,7.6s3.4,7.6,7.6,7.6s7.6-3.4,7.6-7.6S61.9,17.5,57.6,17.5z"/><text x="0" y="115" fill="#000000" font-size="5px" font-weight="bold" font-family="'Helvetica Neue', Helvetica, Arial-Unicode, Arial, Sans-serif">Created by Rohith M S</text><text x="0" y="120" fill="#000000" font-size="5px" font-weight="bold" font-family="'Helvetica Neue', Helvetica, Arial-Unicode, Arial, Sans-serif">from the Noun Project</text></svg>